PathFileType	4	(X/Y/Z)	\\147.46.242.158\로컬 디스크 (e)\MOCAP Data\Iguana Capture\iguana\Project 2\Capture day 7\Session 2\Take13.trc
DataRate	CameraRate	NumFrames	NumMarkers	Units	OrigDataRate	OrigDataStartFrame	OrigNumFrames
120.0	120.0	11	23	mm	120.0	1	7542
Frame#	Time	ana:head1			ana:head2			ana:bone1			ana:bone2			ana:bone3			ana:tail1			ana:tail2			ana:tail3			ana:tail4			ana:Rforefoot1			ana:Rforefoot2			ana:Rforefoot3			ana:Lforefoot1			ana:Lforefoot2			ana:Lforefoot3			ana:RhindLeg1			ana:RhindLeg2			ana:RhindLeg3			ana:RhindLeg4			ana:LhindLeg1			ana:LhindLeg2			ana:LhindLeg3			ana:LhindLeg4			
		X1	Y1	Z1	X2	Y2	Z2	X3	Y3	Z3	X4	Y4	Z4	X5	Y5	Z5	X6	Y6	Z6	X7	Y7	Z7	X8	Y8	Z8	X9	Y9	Z9	X10	Y10	Z10	X11	Y11	Z11	X12	Y12	Z12	X13	Y13	Z13	X14	Y14	Z14	X15	Y15	Z15	X16	Y16	Z16	X17	Y17	Z17	X18	Y18	Z18	X19	Y19	Z19	X20	Y20	Z20	X21	Y21	Z21	X22	Y22	Z22	X23	Y23	Z23	

4420	36.825	434.88702	319.56967	50.20113	429.82947	329.36923	50.72760	412.11182	343.41589	40.02016	386.60147	346.60007	32.18940	353.80881	348.19867	21.43130	324.87787	355.56036	12.46439	301.19598	381.41974	7.46187	299.80173	422.30200	6.13435	311.89081	463.11865	4.02927	415.19513	325.57602	24.02204	403.90585	321.19037	13.66293	413.96359	319.15796	0.39616	423.57458	351.69299	23.31487	426.45636	361.38507	14.82634	438.66959	361.11337	1.22569	351.28839	339.50217	14.89851	362.08417	320.74570	19.78981	354.23569	312.22150	0.91450	363.42413	309.70935	3.01024	356.13373	356.07159	15.58537	367.57425	368.91467	18.06006	362.37860	383.02219	2.10415	373.00565	386.47919	3.07500	
4421	36.833	434.54031	319.65738	49.95176	430.10593	329.27856	49.25571	412.12204	343.37537	40.02359	386.69196	346.55948	32.18044	353.89700	348.23270	21.41656	324.86017	355.50171	12.58109	301.15439	381.40097	7.44991	299.47934	422.79388	6.13800	311.87164	463.09586	4.02889	414.84625	324.36139	24.49372	403.89105	321.14960	13.63974	413.98465	319.10773	0.46388	423.57458	351.69299	23.31487	426.47830	361.35699	14.84153	438.70987	361.08017	1.30030	353.64209	338.40225	16.94591	362.06671	320.77835	19.73966	354.46887	312.47119	0.53485	363.46661	309.75555	2.98568	356.12991	356.06046	15.55247	367.59802	368.92630	18.08298	362.40067	383.01761	2.09044	373.15378	386.53357	3.10936	
4422	36.842	435.19537	319.42389	50.50722	429.38547	328.34006	49.79842	412.17783	343.36636	40.09248	386.55154	346.31036	32.06637	353.81381	347.95703	21.59282	324.92786	355.52338	12.56819	301.13535	381.40851	7.46055	299.78650	422.27631	6.12081	311.84695	463.21671	4.11147	414.91196	327.74692	22.68451	403.88028	321.05573	13.66553	414.00266	319.03421	0.48059	423.57178	351.50089	23.41059	426.46588	361.22165	14.81307	438.73190	361.07193	1.34278	353.58902	338.49005	16.87682	362.01819	320.82275	19.64305	354.41653	312.46237	0.53713	362.36487	309.95105	3.35281	355.66782	355.59918	15.15543	367.69339	368.93820	17.96851	362.37860	383.02219	2.10413	373.10446	386.52112	3.01144	
4423	36.850	435.11667	319.27994	50.62759	429.80661	328.16028	50.19043	412.30807	343.26212	40.09180	386.72659	346.22018	32.35406	353.84396	348.05359	21.54691	324.98303	355.52798	12.65716	301.17578	381.30496	7.40267	299.67239	422.49304	6.14960	311.83252	463.17654	4.09180	414.90182	325.24063	24.03536	403.82288	321.06317	13.66380	414.01474	319.06750	0.48135	423.64188	351.38605	23.55338	426.46753	361.11542	14.97541	438.72144	361.06485	1.33635	353.17093	338.68335	16.55057	362.03119	320.77640	19.71028	354.22931	312.65839	0.64652	362.21338	310.21066	3.52338	355.92752	355.85980	15.36305	367.60776	368.95944	18.04246	362.40552	383.02710	2.13568	373.04895	386.49536	3.12240	
4424	36.858	434.98938	319.08597	50.70853	429.91983	327.80505	50.40379	412.40112	343.16757	40.11579	386.79654	346.05997	32.46422	353.81976	348.04483	21.54705	325.06784	355.54230	12.73737	301.17120	381.31647	7.40803	299.66516	422.49432	6.14625	311.81815	463.18503	4.10364	414.84650	324.95740	24.12434	403.58728	321.22479	13.67600	414.02939	319.06741	0.48201	423.66901	351.24982	23.61459	426.49774	360.99814	15.00963	438.72995	361.04782	1.35997	353.09421	338.73273	16.48819	362.03387	320.77463	19.71863	354.15265	312.81714	0.61995	361.84146	310.41034	3.72406	355.88794	355.85294	15.34050	367.62512	368.99442	18.04121	362.41827	383.04010	2.14791	373.03482	386.49585	3.14429	
4425	36.867	434.72672	318.85660	50.70407	430.02557	327.52145	50.68792	412.48303	343.04449	40.13218	386.84067	345.93851	32.52022	353.79843	348.05295	21.54724	325.16666	355.56677	12.81645	301.18005	381.30624	7.41067	299.67899	422.45578	6.13751	311.80713	463.18893	4.11194	414.82208	324.82520	24.13118	403.19580	321.53320	13.69284	414.03577	319.07959	0.46845	423.69522	351.09167	23.65686	426.56277	360.84869	15.06120	438.75690	361.04065	1.40776	352.91592	338.79501	16.33566	361.96368	320.84320	19.74219	354.07086	312.84149	0.65987	361.62747	310.51004	3.84620	355.84711	355.87799	15.33667	367.65149	369.03223	18.03739	362.43866	383.06009	2.15508	373.01627	386.49667	3.16167	
4426	36.875	434.31601	318.58328	50.61074	430.09427	327.34323	50.85696	412.53421	342.89246	40.13060	386.86392	345.87427	32.51876	353.78320	348.09607	21.52988	325.25549	355.59222	12.89081	301.18735	381.30630	7.41789	299.68674	422.42361	6.12364	311.80087	463.18744	4.11496	414.79941	324.70099	24.11108	402.66272	321.98190	13.69918	414.04037	319.09012	0.45734	423.71078	350.91129	23.66847	426.65210	360.67029	15.11775	438.79593	361.03580	1.47227	352.84988	338.80875	16.27910	361.91229	320.89874	19.75138	354.01694	312.67581	0.76643	361.67902	310.49216	3.85782	355.84012	355.98959	15.39472	367.69342	369.08014	18.03859	362.46240	383.08002	2.16202	373.01175	386.50000	3.17259	
4427	36.883	433.84961	318.25192	50.48470	430.03061	327.20111	50.91682	412.56876	342.71854	40.12374	386.85257	345.85406	32.45088	353.77933	348.14862	21.51353	325.32742	355.61786	12.94580	301.19171	381.31726	7.43147	299.70340	422.37817	6.10762	311.79755	463.19107	4.11997	414.76938	324.83420	23.92800	402.24332	322.28665	13.70381	414.03522	319.09625	0.44704	423.71179	350.69354	23.65942	426.75723	360.46558	15.18098	438.81372	361.04102	1.54774	352.91928	338.76349	16.33707	361.85870	320.95117	19.74612	353.99927	312.34595	0.92311	361.90710	310.37048	3.77629	355.83023	356.12341	15.46601	367.75278	369.12885	18.03399	362.49741	383.10608	2.16237	373.01651	386.50702	3.16955	
4428	36.892	433.39157	317.86646	50.37844	429.80014	326.99066	50.84099	412.59747	342.46249	40.08811	386.80539	345.89682	32.33430	353.79224	348.21289	21.50123	325.37469	355.63843	12.98130	301.20065	381.30676	7.43213	299.71411	422.35605	6.10354	311.79590	463.19458	4.12527	414.73401	324.98087	23.72937	402.00427	322.35675	13.70450	413.89590	319.22763	0.36815	423.70038	350.43234	23.64133	426.85382	360.23367	15.25618	438.80286	361.05038	1.61635	353.09741	338.68298	16.49093	361.83380	320.97739	19.71946	354.00479	312.08942	1.02972	362.23550	310.15842	3.61490	355.86649	356.31641	15.59407	367.81296	369.17682	18.03318	362.51355	383.11575	2.15225	373.02802	386.51260	3.16079	
4429	36.900	432.97974	317.38428	50.31706	429.38498	326.75378	50.70728	412.64917	342.14047	40.04706	386.75766	345.92633	32.23953	353.82022	348.26199	21.49583	325.37869	355.68582	13.00270	301.21646	381.27866	7.42542	299.72058	422.35031	6.10410	311.79550	463.19760	4.13150	414.66690	325.01218	23.57752	402.02576	322.10715	13.69804	413.66843	319.42328	0.21963	423.68610	350.13382	23.62984	426.91837	359.96631	15.31990	438.77954	361.05054	1.68149	353.40085	338.56458	16.75401	361.85541	320.94730	19.70503	354.02533	311.89957	1.10034	362.57544	309.98544	3.46113	355.91977	356.46698	15.70250	367.85513	369.20148	18.03294	362.52078	383.11542	2.15079	373.04251	386.51929	3.15189	
4430	36.908	432.57672	316.80444	50.30603	428.94684	326.33005	50.59030	412.72247	341.75058	40.01025	386.74200	345.95557	32.19120	353.85489	348.31479	21.49003	325.37646	355.75681	13.03344	301.22406	381.27505	7.42792	299.69019	422.40732	6.11179	311.79205	463.19540	4.13549	414.56030	324.90436	23.49300	402.23203	321.60635	13.67990	413.36047	319.69064	0.00080	423.72562	349.78348	23.65605	426.96188	359.65814	15.37826	438.70813	361.02713	1.73085	353.56555	338.52328	16.89808	361.92477	320.88620	19.69464	354.04709	311.80557	1.13085	362.87338	309.82431	3.30215	356.01193	356.60455	15.82558	367.88382	369.20987	18.02599	362.50958	383.10162	2.13884	373.05658	386.52838	3.14492	
